<svg width="20" height="20" viewBox="0 0 20 20" fill="none" xmlns="http://www.w3.org/2000/svg">
    <g clip-path="url(#clip0_0_140)">
        <path
            d="M10 0C15.5227 0 20 4.47733 20 10C20 15.5227 15.5227 20 10 20C4.47733 20 0 15.5227 0 10C0 4.47733 4.47733 0 10 0ZM4.99991 10.02C4.99667 10.2373 5.082 10.4467 5.236 10.6L8.528 13.882C8.73133 14.0853 9.028 14.1653 9.306 14.0913C9.584 14.0167 9.80133 13.8 9.876 13.522C9.95067 13.244 9.87133 12.9473 9.668 12.744L7.74 10.814H14.2C14.642 10.814 15 10.456 15 10.014C15 9.572 14.642 9.214 14.2 9.214H7.722L9.668 7.268C9.87133 7.06467 9.95133 6.768 9.87667 6.48933C9.802 6.21133 9.58467 5.994 9.30667 5.91933C9.02867 5.84467 8.73133 5.92467 8.528 6.128L5.236 9.41C5.084 9.56067 4.99933 9.766 4.99991 9.98V10.02Z"
            fill="none" />
    </g>
    <defs>
        <clipPath id="clip0_0_140">
            <rect width="20" height="20" fill="white" transform="matrix(-1 0 0 1 20 0)" />
        </clipPath>
    </defs>
</svg>