<svg xmlns="http://www.w3.org/2000/svg" width="20" height="20" viewBox="0 0 20 20" fill="none">
    <g clip-path="url(#clip0_0_145)">
        <path
            d="M10 0C4.47733 0 0 4.47733 0 10C0 15.5227 4.47733 20 10 20C15.5227 20 20 15.5227 20 10C20 4.47733 15.5227 0 10 0ZM15.0001 10.02C15.0033 10.2373 14.918 10.4467 14.764 10.6L11.472 13.882C11.2687 14.0853 10.972 14.1653 10.694 14.0913C10.416 14.0167 10.1987 13.8 10.124 13.522C10.0493 13.244 10.1287 12.9473 10.332 12.744L12.26 10.814H5.8C5.358 10.814 5 10.456 5 10.014C5 9.572 5.358 9.214 5.8 9.214H12.278L10.332 7.268C10.1287 7.06467 10.0487 6.768 10.1233 6.48933C10.198 6.21133 10.4153 5.994 10.6933 5.91933C10.9713 5.84467 11.2687 5.92467 11.472 6.128L14.764 9.41C14.916 9.56067 15.0007 9.766 15.0001 9.98V10.02Z"
            fill="none" />
    </g>
    <defs>
        <clipPath id="clip0_0_145">
            <rect width="20" height="20" fill="white" />
        </clipPath>
    </defs>
</svg>